<svg xmlns="http://www.w3.org/2000/svg" viewBox="0 0 28.51 41.52"><defs><style>.cls-1,.cls-3,.cls-4{fill:none;}.cls-2{fill:#fff;}.cls-2,.cls-3{stroke:#827d29;}.cls-2,.cls-3,.cls-4{stroke-miterlimit:10;}.cls-4{stroke:#bc471e;}</style></defs><title>face4</title><g id="Layer_2" data-name="Layer 2"><path class="cls-1" d="M19.08,41s-8,3-14-2L4,37.18A16.47,16.47,0,0,1,3.4,34c0-.6-.6-3.8-.6-3.8a11.88,11.88,0,0,1-1.3-2.5,12.66,12.66,0,0,0-1.3-3.2s-.6-4.4.6-3.8c0,0-1.3-5.1-.6-6.3,0,0,1.9-7,3.2-8.2a13.22,13.22,0,0,1,4.4-4.4A16.07,16.07,0,0,1,14,.38s7.6.6,10.1,3.8c0,0,3.8,5.7,4.4,11.4v5.7s0,6.3-2.5,8.2l-1.3.6-1.9,6.3L22.08,38c.5.1-3.4,2.7-3,3" transform="translate(0.01 -0.38)"/></g><g id="Layer_3" data-name="Layer 3"><ellipse class="cls-2" cx="8" cy="14.17" rx="3.67" ry="2.91"/><ellipse class="cls-2" cx="20.31" cy="14.17" rx="3.67" ry="2.91"/><path class="cls-2" d="M11.66,14.55a4.36,4.36,0,0,1,5,0" transform="translate(0.01 -0.38)"/><line class="cls-3" x1="24.33" y1="14.23" x2="28.25" y2="13.42"/><line class="cls-3" x1="0.2" y1="12.62" x2="4.32" y2="14.17"/><polyline class="cls-3" points="13.84 9.88 12.29 21.29 14.73 21.83"/><polygon points="11.07 28.62 14.4 37.44 18.01 28.62 11.07 28.62"/><circle cx="20.31" cy="14.17" r="0.75"/><circle cx="8" cy="14.17" r="0.75"/><line class="cls-4" x1="12.67" y1="24.76" x2="16.67" y2="24.76"/></g><g id="Layer_5" data-name="Layer 5"><path class="cls-1" d="M16,47" transform="translate(0.01 -0.38)"/></g></svg>