<svg xmlns="http://www.w3.org/2000/svg" viewBox="0 0 28.51 41.52"><defs><style>.cls-1{fill:none;}.cls-2{fill:#434a54;}.cls-3{fill:#656d78;}.cls-4{fill:#ed5564;}</style></defs><title>face1</title><g id="Layer_2" data-name="Layer 2"><path class="cls-1" d="M19.08,41s-8,3-14-2L4,37.18A16.47,16.47,0,0,1,3.4,34c0-.6-.6-3.8-.6-3.8a11.88,11.88,0,0,1-1.3-2.5,12.66,12.66,0,0,0-1.3-3.2s-.6-4.4.6-3.8c0,0-1.3-5.1-.6-6.3,0,0,1.9-7,3.2-8.2a13.22,13.22,0,0,1,4.4-4.4A16.07,16.07,0,0,1,14,.38s7.6.6,10.1,3.8c0,0,3.8,5.7,4.4,11.4v5.7s0,6.3-2.5,8.2l-1.3.6-1.9,6.3L22.08,38c.5.1-3.4,2.7-3,3" transform="translate(0.01 -0.38)"/></g><g id="Layer_3" data-name="Layer 3"><path class="cls-2" d="M7.06,18.5a1.09,1.09,0,1,0,1.08-1.08A1.08,1.08,0,0,0,7.06,18.5Z" transform="translate(0.01 -0.38)"/><path class="cls-2" d="M17.38,18.5a1.09,1.09,0,1,0,1.09-1.08A1.09,1.09,0,0,0,17.38,18.5Z" transform="translate(0.01 -0.38)"/><path class="cls-3" d="M21.73,16.62a1.08,1.08,0,0,0-1.57-1h0l-4.35,2.17h0a1.09,1.09,0,0,0,.49,2.06,1,1,0,0,0,.48-.12h0l4.35-2.17h0A1.07,1.07,0,0,0,21.73,16.62Z" transform="translate(0.01 -0.38)"/><path class="cls-4" d="M3.68,26.17C6.75,30.67,10.77,34,13.43,34s6.68-3.33,9.75-7.83l-9.75-2Z" transform="translate(0.01 -0.38)"/><path class="cls-3" d="M11.35,17.82h0L7,15.65H7a1.14,1.14,0,0,0-.49-.12,1.08,1.08,0,0,0-1.08,1.09,1.07,1.07,0,0,0,.6,1H6l4.34,2.17h0a1,1,0,0,0,.49.12,1.09,1.09,0,0,0,.48-2.06Z" transform="translate(0.01 -0.38)"/></g></svg>