<svg xmlns="http://www.w3.org/2000/svg" viewBox="0 0 28.51 41.52"><defs><style>.cls-1,.cls-3{fill:none;}.cls-2{fill:#020101;}.cls-3{stroke:#020101;stroke-miterlimit:10;}</style></defs><title>face3</title><g id="Layer_2" data-name="Layer 2"><path class="cls-1" d="M19.08,41s-8,3-14-2L4,37.18A16.47,16.47,0,0,1,3.4,34c0-.6-.6-3.8-.6-3.8a11.88,11.88,0,0,1-1.3-2.5,12.66,12.66,0,0,0-1.3-3.2s-.6-4.4.6-3.8c0,0-1.3-5.1-.6-6.3,0,0,1.9-7,3.2-8.2a13.22,13.22,0,0,1,4.4-4.4A16.07,16.07,0,0,1,14,.38s7.6.6,10.1,3.8c0,0,3.8,5.7,4.4,11.4v5.7s0,6.3-2.5,8.2l-1.3.6-1.9,6.3L22.08,38c.5.1-3.4,2.7-3,3" transform="translate(0.01 -0.38)"/><circle class="cls-2" cx="9.15" cy="17.09" r="2"/><circle class="cls-3" cx="18.65" cy="16.59" r="3"/><path class="cls-3" d="M21.64,17s3,1,3,3V32" transform="translate(0.01 -0.38)"/></g><g id="Layer_5" data-name="Layer 5"><path class="cls-1" d="M16,47" transform="translate(0.01 -0.38)"/><path d="M14.39,22.26s0-.84-2.11-.28A6,6,0,0,0,11,23.38,3,3,0,0,1,9.64,24.5s-1.32.28-1.85-.56a3.35,3.35,0,0,1-.4-.7,3,3,0,0,0,.53,2.24,2.79,2.79,0,0,0,1.85,1.4,3.73,3.73,0,0,0,2.11,0s1.85-.28,2.38-1.4Z" transform="translate(0.01 -0.38)"/><path d="M14.54,22.32s0-.84,2.11-.28A6,6,0,0,1,18,23.44a3,3,0,0,0,1.32,1.12s1.32.28,1.85-.56a3.35,3.35,0,0,0,.4-.7A3,3,0,0,1,21,25.54a2.79,2.79,0,0,1-1.85,1.4,3.73,3.73,0,0,1-2.11,0s-1.85-.28-2.38-1.4Z" transform="translate(0.01 -0.38)"/></g></svg>