<svg xmlns="http://www.w3.org/2000/svg" viewBox="0 0 28.51 41.52"><defs><style>.cls-1,.cls-2,.cls-3,.cls-6{fill:none;}.cls-2{stroke:#000;}.cls-2,.cls-3,.cls-6,.cls-7{stroke-miterlimit:10;}.cls-2,.cls-6,.cls-7{stroke-width:0.5px;}.cls-3{stroke:#d31140;}.cls-4{fill:#1c1c1c;}.cls-5,.cls-7{fill:#fff;}.cls-6,.cls-7{stroke:#1c1c1c;}</style></defs><title>face6</title><g id="Layer_2" data-name="Layer 2"><path class="cls-1" d="M19.08,41s-8,3-14-2L4,37.18A16.47,16.47,0,0,1,3.4,34c0-.6-.6-3.8-.6-3.8a11.88,11.88,0,0,1-1.3-2.5,12.66,12.66,0,0,0-1.3-3.2s-.6-4.4.6-3.8c0,0-1.3-5.1-.6-6.3,0,0,1.9-7,3.2-8.2a13.22,13.22,0,0,1,4.4-4.4A16.07,16.07,0,0,1,14,.38s7.6.6,10.1,3.8c0,0,3.8,5.7,4.4,11.4v5.7s0,6.3-2.5,8.2l-1.3.6-1.9,6.3L22.08,38c.5.1-3.4,2.7-3,3" transform="translate(0.01 -0.38)"/></g><g id="Layer_5" data-name="Layer 5"><circle class="cls-2" cx="8.38" cy="15" r="2.38"/><circle class="cls-2" cx="19.63" cy="15" r="2.38"/></g><g id="Layer_6" data-name="Layer 6"><path class="cls-3" d="M9.5,24.49" transform="translate(0.01 -0.38)"/><path class="cls-2" d="M7.5,22.5a24.09,24.09,0,0,0,13,0" transform="translate(0.01 -0.38)"/></g><g id="Layer_4" data-name="Layer 4"><circle class="cls-4" cx="9.38" cy="15" r="1.19"/><circle class="cls-4" cx="18.63" cy="16" r="1.19"/><path class="cls-5" d="M13.5,25.9a.6.6,0,0,1-.6.6h-.8a.6.6,0,0,1-.6-.6V23.59c0-.05.27-.09.6-.09h.8a.6.6,0,0,1,.6.6Z" transform="translate(0.01 -0.38)"/><path class="cls-6" d="M13.5,25.9a.6.6,0,0,1-.6.6h-.8a.6.6,0,0,1-.6-.6V23.59c0-.05.27-.09.6-.09h.8a.6.6,0,0,1,.6.6Z" transform="translate(0.01 -0.38)"/><path class="cls-5" d="M15.5,25.9a.6.6,0,0,1-.6.6h-.8a.6.6,0,0,1-.6-.6V24.1a.6.6,0,0,1,.6-.6h.8c.33,0,.6.05.6.11V25.9Z" transform="translate(0.01 -0.38)"/><path class="cls-6" d="M15.5,25.9a.6.6,0,0,1-.6.6h-.8a.6.6,0,0,1-.6-.6V24.1a.6.6,0,0,1,.6-.6h.8c.33,0,.6.05.6.11V25.9Z" transform="translate(0.01 -0.38)"/><path class="cls-3" d="M9.47,24.86" transform="translate(0.01 -0.38)"/><path class="cls-7" d="M12.5,19.34a1,1,0,0,1-1,1" transform="translate(0.01 -0.38)"/><path class="cls-7" d="M14.21,19.34a1,1,0,0,0,1,1" transform="translate(0.01 -0.38)"/><path class="cls-7" d="M7.5,20.5a2.19,2.19,0,0,1-1,3" transform="translate(0.01 -0.38)"/><path class="cls-7" d="M20.12,20.53a2.19,2.19,0,0,0,1,3" transform="translate(0.01 -0.38)"/></g></svg>