<svg xmlns="http://www.w3.org/2000/svg" viewBox="0 0 28.51 41.52"><defs><style>.cls-1,.cls-2{fill:none;}.cls-2{stroke:#e2e0e1;stroke-miterlimit:10;stroke-width:0.5px;}.cls-3{fill:#cc803d;}.cls-4{fill:#1c1c1c;}</style></defs><title>face5</title><g id="Layer_2" data-name="Layer 2"><path class="cls-1" d="M19.08,41s-8,3-14-2L4,37.18A16.47,16.47,0,0,1,3.4,34c0-.6-.6-3.8-.6-3.8a11.88,11.88,0,0,1-1.3-2.5,12.66,12.66,0,0,0-1.3-3.2s-.6-4.4.6-3.8c0,0-1.3-5.1-.6-6.3,0,0,1.9-7,3.2-8.2a13.22,13.22,0,0,1,4.4-4.4A16.07,16.07,0,0,1,14,.38s7.6.6,10.1,3.8c0,0,3.8,5.7,4.4,11.4v5.7s0,6.3-2.5,8.2l-1.3.6-1.9,6.3L22.08,38c.5.1-3.4,2.7-3,3" transform="translate(0.01 -0.38)"/></g><g id="Layer_5" data-name="Layer 5"><circle class="cls-2" cx="8.38" cy="15" r="2.38"/><circle class="cls-2" cx="19.63" cy="15" r="2.38"/></g><g id="Layer_4" data-name="Layer 4"><path class="cls-3" d="M14,22.63s1-.54,3,.46l2,1.54c1.63,1.25,2,.46,3,.46,0,0-2,2-4,2a20.29,20.29,0,0,1-4-.46Z" transform="translate(0.01 -0.38)"/><circle class="cls-4" cx="8.38" cy="15" r="1.19"/><circle class="cls-4" cx="19.63" cy="15" r="1.19"/><path class="cls-3" d="M14,22.63s-1-.54-3,.46L9,24.63c-1.63,1.25-2,.46-3,.46,0,0,2,2,4,2a20.29,20.29,0,0,0,4-.46Z" transform="translate(0.01 -0.38)"/></g></svg>