<svg xmlns="http://www.w3.org/2000/svg" viewBox="0 0 245.5 170.54"><defs><style>.cls-1{fill:#605a57;}.cls-2{fill:#070706;}</style></defs><title>hat2</title><g id="Layer_2" data-name="Layer 2"><path class="cls-1" d="M23,51S2.5,53.5.5,62.5L0,139s12,23,99,31c0,0,42,5,112.5-15.5a162.46,162.46,0,0,0,34-19v-74a9,9,0,0,0-3.26-6.94c-5-4.18-18-11.29-27.24-10.58,0,0-1,15-36,26,0,0-16,6-78,5C101,75,37,74,23,51Z" transform="translate(0)"/></g><g id="Layer_3" data-name="Layer 3"><path class="cls-2" d="M23,54S32,20,74,9c0,0,26-5,36-5h30s21,0,49,14c0,0,23,16,27,29,0,0-9,23-70,28,0,0-45,3-83-4C63,71,36,67,23,54Z" transform="translate(0)"/></g><g id="Layer_4" data-name="Layer 4"><rect class="cls-2" x="114" width="20" height="4" rx="2"/></g></svg>