<svg id="Layer_1" data-name="Layer 1" xmlns="http://www.w3.org/2000/svg" viewBox="0 0 54.84 46.06"><defs><style>.cls-1{fill:#333;}</style></defs><title>hat3</title><g id="hat"><path class="cls-1" d="M9.7,35.3a8.47,8.47,0,0,0-6.6-1.5S1.2,35.3.9,36.6c0,0-1.1,5.6,8,7.7,0,0,4,1.9,13,2.5,0,0,11.1.6,17-.9,0,0,9.3-1.2,13.9-4.2,0,0,2.6-2.3,2.8-3.4,0,0,.6-2.5-1.1-3.7,0,0-2-1.9-5.2,0L48,33.7l-1-3.8s-.3-1.5.6-14.8l1.1-8.9s.6-2.8-11.6-4.5c0,0-12.8-1.9-20.4,0,0,0-5.4.3-6.8,1.5,0,0-2.6,1.5-1.5,5.1C8.5,8.3,11.7,32.1,9.7,35.3Z" transform="translate(-0.86 -0.86)"/></g><g id="band"><path d="M46,29.3s-24.9-.6-34.1.4l-1.5.2L10.2,37s9.2,1.1,14.8,1.9a66.82,66.82,0,0,0,14.3-.8s9.5-2.3,9.1-3.5C47.7,32.1,47.4,28.8,46,29.3Z" transform="translate(-0.86 -0.86)"/></g></svg>