<svg id="Layer_1" data-name="Layer 1" xmlns="http://www.w3.org/2000/svg" xmlns:xlink="http://www.w3.org/1999/xlink" viewBox="0 0 198.6 114.5"><defs><style>.cls-1{fill:#3c3c3c;}.cls-2{fill:none;stroke:#606060;stroke-miterlimit:10;stroke-width:10px;}.cls-3{fill:#4a4a4a;}.cls-4{fill:url(#radial-gradient);}</style><radialGradient id="radial-gradient" cx="102.9" cy="101.7" r="45.73" gradientTransform="matrix(1, 0, 0, -1, -3.1, 119.7)" gradientUnits="userSpaceOnUse"><stop offset="0" stop-color="#3f3f3f"/><stop offset="0.61" stop-color="#414141"/><stop offset="0.84" stop-color="#484848"/><stop offset="0.99" stop-color="#535353"/><stop offset="1" stop-color="#545454"/></radialGradient></defs><title>hat4</title><g id="hat"><ellipse class="cls-1" cx="99.3" cy="81.7" rx="99.3" ry="32.8"/><ellipse class="cls-2" cx="99.8" cy="20.6" rx="63" ry="15.6"/><path class="cls-1" d="M35.6,25V58.6s8.9,14.8,56.9,15.2c0,0,39.6,1.5,62.8-6.3,0,0,11.1-2.6,13.7-14V25s-7.8,11.5-45.5,16.3c0,0-35.9.7-53.6-1.5C70,39.7,46.7,34.6,35.6,25Z" transform="translate(-3.1 -4.3)"/><path class="cls-3" d="M34.2,57.1l1.5,31.1s9.2,12.2,30.7,13.7c0,0,37,4.4,46.6,3.7,0,0,32.2-1.8,41.4-6.3,0,0,13.5-5.1,17.6-9.6V51.6h-2.8s-5.8,13.7-11.1,16.6c0,0-38.5,7.8-57.7,7.4C100.3,75.6,51.9,75.6,34.2,57.1Z" transform="translate(-3.1 -4.3)"/><ellipse class="cls-4" cx="99.8" cy="18" rx="63" ry="14.6"/></g></svg>