<svg id="hat" xmlns="http://www.w3.org/2000/svg" viewBox="0 0 36.97 34.56"><defs><style>.cls-1{fill:#772420;}.cls-2{fill:#b43a30;}</style></defs><title>hat6</title><path class="cls-1" d="M7.05,17l.76,13.08a13.47,13.47,0,0,0,7.24,3.68,19.13,19.13,0,0,0,7.61.64s4.95-.89,6.22-1.91c0,0,1.91-1.4,2.16-2V18.09s-2,2.2-7.11,2.58a60.12,60.12,0,0,1-9.9-.38A34.72,34.72,0,0,1,7.05,17Z"/><path class="cls-2" d="M7,16.94A4,4,0,0,0,4.6,14.66s-3-.89-3-1.53C1.55,13.13-.23,11,0,9.2L3.5,5.13S8.91,2.34,9.17,2L11.83.06a12.66,12.66,0,0,1,2.54,0L16.91,0l5.46,1.45,4.95,1.27L31,3.87l4.83,2L37,6.28v4.31L35.83,14.4s.13,1.4-1.78,2.54c0,0-2-.33-2.54.76L31,18.8s-5.2,3.41-8.25,2.62-.76,0-.76,0S13.61,22.64,7,16.94Z"/></svg>