<svg xmlns="http://www.w3.org/2000/svg" viewBox="0 0 56.17 55.89"><defs><style>.cls-1{fill:#3a3a60;}.cls-2{fill:#16639d;}.cls-3{fill:#fff;}.cls-4{fill:#ca3637;}.cls-5{fill:#ff6b41;}</style></defs><title>hat6</title><g id="Layer_2" data-name="Layer 2"><path class="cls-1" d="M23.77,56.91s-5.25,1-16.42-4.82c0,0-.87-20,20.26-24.61Z" transform="translate(-0.51 -1.23)"/><g id="Layer_6" data-name="Layer 6"><path class="cls-2" d="M28.3,29h0a.78.78,0,0,1-.77-.77L27.47,2a.78.78,0,0,1,.77-.77h0A.78.78,0,0,1,29,2l.06,26.18A.76.76,0,0,1,28.3,29Z" transform="translate(-0.51 -1.23)"/><path class="cls-3" d="M212.09,23.72" transform="translate(-0.51 -1.23)"/></g></g><g id="Layer_3" data-name="Layer 3"><path class="cls-4" d="M23.77,56.91s18,1.18,24.54-2.06c0,0,.67-27.67-20.7-27.37Z" transform="translate(-0.51 -1.23)"/></g><g id="Layer_4" data-name="Layer 4"><path class="cls-5" d="M48.31,54.85s4.28-2.27,5-4.35c0,0-.57-22.32-25.75-22.91C27.58,27.59,48,31.46,48.31,54.85Z" transform="translate(-0.51 -1.23)"/></g><g id="prop"><path class="cls-2" d="M29,5.94S17.59,4.12,12.91,4c0,0-9.28,1.34-11.53,2.86,0,0-3.09,1.75,2.35,2,0,0,10.87.54,13.29.23,0,0,8.83-1,12.3-.76Z" transform="translate(-0.51 -1.23)"/><path class="cls-2" d="M28.25,5.82a53,53,0,0,1,7.34-1.23,39.39,39.39,0,0,1,9.81.09S54.22,5.73,56.49,6.2c0,0,1.42.69-3.63.43,0,0-10.43,1-12.77.87,0,0-7.93.31-9.22.83a8.18,8.18,0,0,0-2.34-.1Z" transform="translate(-0.51 -1.23)"/></g></svg>