<?xml version="1.0" encoding="utf-8"?>
<!-- Generator: Adobe Illustrator 24.0.1, SVG Export Plug-In . SVG Version: 6.00 Build 0)  -->
<svg version="1.1" id="Layer_1" xmlns="http://www.w3.org/2000/svg" xmlns:xlink="http://www.w3.org/1999/xlink" x="0px" y="0px"
	 viewBox="0 0 302.2 208.4" style="enable-background:new 0 0 302.2 208.4;" xml:space="preserve">
<style type="text/css">
	.st0{fill:#DDDDDD;}
	.st1{fill:none;stroke:#545454;stroke-width:3;stroke-miterlimit:10;}
	.st2{fill:#BBA110;}
	.st3{fill:#424242;}
</style>
<title>scoreCard</title>
<g id="instructions">
	
		<image style="overflow:visible;opacity:0.6;enable-background:new    ;" width="370" height="256" xlink:href="170F99B1495982B9.png"  transform="matrix(0.8156 0 0 0.7658 0 6.3078)">
	</image>
	<path class="st0" d="M17.9,7.7h254.9c5.4,0,9.9,4.1,9.9,9.2v165.4c0,5.1-4.4,9.2-9.9,9.2H17.9c-5.4,0-9.9-4.1-9.9-9.2V16.9
		C8,11.8,12.5,7.7,17.9,7.7z"/>
	<path class="st1" d="M17.9,7.7h254.9c5.4,0,9.9,4.1,9.9,9.2v165.4c0,5.1-4.4,9.2-9.9,9.2H17.9c-5.4,0-9.9-4.1-9.9-9.2V16.9
		C8,11.8,12.5,7.7,17.9,7.7z"/>
</g>
<path class="st2" d="M153.6,140.3h104.6c5.9,0,10.7,4.6,10.7,10.3v15c0,5.7-4.8,10.3-10.7,10.3H153.6c-5.9,0-10.7-4.6-10.7-10.3v-15
	C142.9,145,147.7,140.3,153.6,140.3z"/>
<path d="M160.3,151.6h4.3c2.2,0,3.8,1.2,3.8,3.3c0,2.2-1.6,3.4-3.9,3.4h-2.6v4.5h-1.7V151.6z M161.9,156.9h2.5c1.5,0,2.2-0.7,2.2-2
	s-0.9-2-2.2-2h-2.5V156.9z"/>
<path d="M170,162.8v-11.9h1.6v11.9H170z"/>
<path d="M180.2,161c0,0.6,0,1.2,0.1,1.9h-1.5c-0.1-0.3-0.1-0.7-0.1-1c-0.3,0.5-0.9,1.2-2.5,1.2c-2,0-2.8-1.3-2.8-2.5
	c0-1.9,1.5-2.7,3.9-2.7h1.4v-0.7c0-0.7-0.2-1.5-1.7-1.5c-1.3,0-1.5,0.6-1.7,1.3h-1.5c0.1-1.2,0.9-2.5,3.3-2.5c2.1,0,3.2,0.8,3.2,2.7
	L180.2,161z M178.6,158.9h-1.3c-1.6,0-2.4,0.4-2.4,1.5c0,0.8,0.6,1.4,1.3,1.4c0.1,0,0.1,0,0.2,0c1.9,0,2.1-1.3,2.1-2.7L178.6,158.9z
	"/>
<path d="M183.1,154.6c1.2,3.7,2,6,2.2,6.8l0,0c0.2-0.9,0.8-2.8,2.1-6.8h1.6l-2.9,8.6c-0.8,2.4-1.5,3-3.2,3c-0.3,0-0.6,0-0.9-0.1
	v-1.4c0.2,0,0.4,0,0.7,0c1,0,1.4-0.4,1.9-1.7l-3.1-8.6L183.1,154.6z"/>
<path d="M196.4,159.6l-1.1,3.2h-1.7l4-11.3h2.1l4.1,11.3H202l-1.2-3.2H196.4z M200.4,158.2c-1-2.8-1.6-4.4-1.8-5.3l0,0
	c-0.3,1-0.9,2.9-1.7,5.3H200.4z"/>
<path d="M212.2,162c0,2.6-1.1,4.2-3.9,4.2c-2.6,0-3.3-1.5-3.5-2.5h1.6c0.2,0.8,1,1.4,1.9,1.3c1.8,0,2.2-1.1,2.2-3v-0.6
	c-0.5,1-1.5,1.5-2.5,1.4c-2.1,0-3.4-1.7-3.4-4.1c0-2.7,1.5-4.3,3.6-4.3c1.5,0,2.2,0.7,2.4,1.2c0-0.3,0.1-0.9,0.1-1h1.5
	c0,0.5,0,1.6,0,2.4L212.2,162z M206.4,158.7c0,1.7,0.9,2.8,2.1,2.8c1.7,0,2.2-1.1,2.2-2.9s-0.4-2.8-2.1-2.8
	C207.2,155.7,206.4,156.9,206.4,158.7L206.4,158.7z"/>
<path d="M220.7,161c0,0.6,0,1.2,0.1,1.9h-1.5c-0.1-0.3-0.1-0.7-0.1-1c-0.3,0.5-0.9,1.2-2.5,1.2c-2,0-2.8-1.3-2.8-2.5
	c0-1.9,1.5-2.7,3.9-2.7h1.4v-0.7c0-0.7-0.2-1.5-1.7-1.5c-1.3,0-1.5,0.6-1.7,1.3h-1.5c0.1-1.2,0.9-2.5,3.3-2.5c2.1,0,3.2,0.8,3.2,2.7
	L220.7,161z M219.2,158.9h-1.3c-1.6,0-2.4,0.4-2.4,1.5c0,0.8,0.6,1.4,1.3,1.4c0.1,0,0.1,0,0.2,0c1.9,0,2.1-1.3,2.1-2.7L219.2,158.9z
	"/>
<path d="M223.1,150.9h1.5v1.8h-1.5V150.9z M223.1,154.6h1.5v8.3h-1.5V154.6z"/>
<path d="M227.1,156.7c0-0.7,0-1.5,0-2.1h1.5c0,0.2,0.1,1,0.1,1.3c0.5-1,1.5-1.6,2.6-1.5c1.5,0,2.8,1,2.8,3.1v5.3h-1.6v-5.1
	c0-1.2-0.5-2-1.7-2c-1.4,0-2.1,1.1-2.1,2.7v4.4h-1.6V156.7z"/>
<polygon class="st3" points="242.7,163.8 252.5,158.1 242.7,152.4 "/>
</svg>
