<?xml version="1.0" encoding="utf-8"?>
<!-- Generator: Adobe Illustrator 24.0.1, SVG Export Plug-In . SVG Version: 6.00 Build 0)  -->
<svg version="1.1" id="Capa_1" xmlns="http://www.w3.org/2000/svg" xmlns:xlink="http://www.w3.org/1999/xlink" x="0px" y="0px"
	 viewBox="0 0 99.2 98.3" style="enable-background:new 0 0 99.2 98.3;" xml:space="preserve">
<style type="text/css">
	.st0{fill:#FFFFFF;}
</style>
<g>
	<g>
		<path class="st0" d="M92.4,39.3l-6.6-1.1c-0.7-2.2-1.6-4.4-2.7-6.4l3.9-5.5c1.7-2.3,1.4-5.5-0.6-7.5l-5.9-5.9
			c-1.1-1.1-2.6-1.7-4.1-1.7c-1.2,0-2.4,0.4-3.4,1.1l-5.5,3.9c-2.1-1.1-4.4-2-6.7-2.7l-1.1-6.5C59.3,4.1,56.9,2,54.1,2h-8.3
			c-2.9,0-5.3,2-5.7,4.9l-1.1,6.7c-2.2,0.7-4.4,1.6-6.4,2.7l-5.4-3.9c-1-0.7-2.2-1.1-3.4-1.1c-1.6,0-3,0.6-4.1,1.7l-5.9,5.9
			c-2,2-2.3,5.2-0.6,7.5l3.9,5.5c-1.1,2.1-1.9,4.2-2.6,6.4l-6.5,1.1C5,39.9,3,42.4,3,45.2v8.3c0,2.9,2,5.3,4.9,5.7l6.7,1.1
			c0.7,2.2,1.6,4.4,2.7,6.4l-3.9,5.4c-1.7,2.3-1.4,5.5,0.6,7.5l5.9,5.9c1.1,1.1,2.6,1.7,4.1,1.7c1.2,0,2.4-0.4,3.4-1.1l5.5-3.9
			c2,1,4.1,1.9,6.2,2.6l1.1,6.6c0.5,2.8,2.9,4.9,5.7,4.9h8.3c2.9,0,5.3-2,5.7-4.9l1.1-6.6c2.2-0.7,4.4-1.6,6.4-2.7l5.5,3.9
			c1,0.7,2.2,1.1,3.4,1.1l0,0c1.6,0,3-0.6,4.1-1.7l5.9-5.9c2-2,2.3-5.2,0.6-7.5l-3.9-5.5c1.1-2.1,2-4.2,2.7-6.4l6.6-1.1
			c2.8-0.5,4.9-2.9,4.9-5.7V45C97.3,42.2,95.2,39.8,92.4,39.3z M91.9,53.3c0,0.3-0.2,0.5-0.4,0.5l-8.3,1.4c-1,0.2-1.9,0.9-2.1,1.9
			c-0.7,2.9-1.9,5.7-3.4,8.3c-0.5,0.9-0.5,2,0.1,2.9l4.9,6.9c0.1,0.2,0.1,0.5-0.1,0.7l-5.9,5.9c-0.1,0.1-0.3,0.2-0.4,0.2
			c-0.1,0-0.2,0-0.3-0.1l-6.8-4.9c-0.8-0.6-2-0.6-2.9-0.1c-2.6,1.5-5.4,2.7-8.3,3.4c-1,0.3-1.8,1.1-1.9,2.1l-1.4,8.3
			c0,0.3-0.3,0.4-0.5,0.4h-8.3c-0.3,0-0.5-0.2-0.5-0.4l-1.4-8.3c-0.2-1-0.9-1.9-1.9-2.1c-2.8-0.7-5.5-1.9-8.1-3.3
			c-0.4-0.2-0.9-0.4-1.3-0.4c-0.5,0-1.1,0.2-1.5,0.5l-6.9,4.9C24.2,82,24.1,82,24,82c-0.1,0-0.2,0-0.4-0.2L17.7,76
			c-0.2-0.2-0.2-0.5-0.1-0.7l4.8-6.8c0.6-0.9,0.6-2,0.1-2.9c-1.5-2.6-2.7-5.3-3.5-8.2c-0.3-1-1.1-1.8-2.1-1.9L8.7,54
			c-0.3,0-0.4-0.3-0.4-0.5v-8.3c0-0.3,0.2-0.5,0.4-0.5l8.2-1.4c1-0.2,1.9-0.9,2.1-2c0.7-2.9,1.9-5.7,3.4-8.3c0.5-0.9,0.5-2-0.1-2.9
			l-4.9-6.9c-0.1-0.2-0.1-0.5,0.1-0.7l5.9-5.9c0.1-0.1,0.3-0.2,0.4-0.2c0.1,0,0.2,0,0.3,0.1l6.8,4.8c0.9,0.6,2,0.6,2.9,0.1
			c2.6-1.5,5.3-2.7,8.2-3.5c1-0.3,1.8-1.1,1.9-2.1l1.4-8.3c0-0.3,0.3-0.4,0.5-0.4h8.3c0.3,0,0.5,0.2,0.5,0.4L56,16
			c0.2,1,0.9,1.9,2,2.1c3,0.7,5.8,1.9,8.4,3.5c0.9,0.5,2,0.5,2.9-0.1l6.8-4.9c0.1-0.1,0.2-0.1,0.3-0.1c0.1,0,0.2,0,0.4,0.2l5.9,5.9
			c0.2,0.2,0.2,0.5,0.1,0.7L77.8,30c-0.6,0.8-0.6,2-0.1,2.9c1.5,2.6,2.7,5.4,3.4,8.3c0.3,1,1.1,1.8,2.1,1.9l8.3,1.4
			c0.3,0,0.4,0.3,0.4,0.5L91.9,53.3L91.9,53.3z"/>
		<path class="st0" d="M50.1,28.8c-11.2,0-20.3,9.1-20.3,20.3s9.1,20.3,20.3,20.3s20.3-9.1,20.3-20.3S61.3,28.8,50.1,28.8z
			 M50.1,64.2c-8.3,0-15-6.7-15-15s6.7-15,15-15s15,6.7,15,15S58.4,64.2,50.1,64.2z"/>
	</g>
</g>
</svg>
